# xmcd
#
# Track frame offsets:
#	150
#	13047
#	23855
#	41569
#	53827
#	71102
#	83641
#	100317
#	112865
#	126981
#	139489
#	152012
#	168568
#	182443
#	195372
#	204477
#	221563
#	230471
#	243911
#	255825
#	265884
#	282279
#	293514
#	303225
#
# Disc length: 4252 seconds
#
# Revision: 0
# Processed by: cddbd v1.5.2PL0 Copyright (c) Steve Scherf et al.
# Submitted via: EZCDAudioConverter 8.2.2.1
#
DISCID=4b109a18
DTITLE=Blackout - Gwiazdy polskiego big beatu
DYEAR=2014
DGENRE=Blues/Rock
TTITLE0=Zaśpiewam Ci tak
TTITLE1=Płomienie
TTITLE2=Julia
TTITLE3=Uwielbiam ją
TTITLE4=Gdzie on tam i Ty
TTITLE5=Nie mam dla Ciebie żadnej piosenki
TTITLE6=Spotkamy się w moim śnie
TTITLE7=Mówiłaś, że kochasz
TTITLE8=Anna
TTITLE9=Moje srebro to głos gitary
TTITLE10=Spytaj moich oczu
TTITLE11=Jest taka chwila
TTITLE12=Gdy ją spotkacie na swojej drodze
TTITLE13=To wiatr ze mnie kpi
TTITLE14=Nic mi więcej nie trzeba
TTITLE15=Odejść stąd
TTITLE16=Przyjmij słońce z moich rąk
TTITLE17=Nie zostawiaj nic
TTITLE18=Ktoś wziął mi
TTITLE19=Kolekcjonerzy
TTITLE20=Studnia bez wody
TTITLE21=Jej nie ma tu
TTITLE22=Nie zobaczysz moich łez
TTITLE23=Spokojnie śpij
EXTD=
EXTT0=
EXTT1=
EXTT2=
EXTT3=
EXTT4=
EXTT5=
EXTT6=
EXTT7=
EXTT8=
EXTT9=
EXTT10=
EXTT11=
EXTT12=
EXTT13=
EXTT14=
EXTT15=
EXTT16=
EXTT17=
EXTT18=
EXTT19=
EXTT20=
EXTT21=
EXTT22=
EXTT23=
PLAYORDER=
